<?xml version="1.0" standalone="yes"?>
<svg xmlns="http://www.w3.org/2000/svg" width="750" height="500">
<path style="fill:#d1d9dd; stroke:none;" d="M0 0L0 500L750 500L750 0L0 0z"/>
<path style="fill:#afb5b9; stroke:none;" d="M224 14L225 15L224 14z"/>
<path style="fill:#848789; stroke:none;" d="M225 14L226 15L225 14z"/>
<path style="fill:#6e7071; stroke:none;" d="M226.667 14.3333L227.333 14.6667L226.667 14.3333z"/>
<path style="fill:#afb5b9; stroke:none;" d="M228 14L229 15L228 14M254 14L255 15L254 14z"/>
<path style="fill:#848789; stroke:none;" d="M255.667 14.3333L256.333 14.6667L255.667 14.3333z"/>
<path style="fill:#6e7071; stroke:none;" d="M257 14L258 15L257 14z"/>
<path style="fill:#848789; stroke:none;" d="M258 14L259 15L258 14z"/>
<path style="fill:#afb5b9; stroke:none;" d="M259 14L261 16L259 14M222 15L223 16L222 15z"/>
<path style="fill:#555555; stroke:none;" d="M220 38C221.698 30.9384 228.49 27.4436 230.338 21.0046C232.543 13.3198 222.461 15.369 219.185 18.3441C210.71 26.0425 201.144 57.7469 219.001 60.7677C234.656 63.4162 233.583 41.2674 220 38z"/>
<path style="fill:#6e7071; stroke:none;" d="M229 15L230 16L229 15z"/>
<path style="fill:#afb5b9; stroke:none;" d="M252 15L253 16L252 15z"/>
<path style="fill:#6e7071; stroke:none;" d="M253 15L254 16L253 15z"/>
<path style="fill:#555555; stroke:none;" d="M250 38C252.207 32.4636 254.832 29.1409 258.57 24.5756C264.707 17.0806 256.286 12.8578 250.04 18.2284C241.434 25.629 231.236 58.971 250.001 60.8511C265.176 62.3716 263.632 40.1654 250 38z"/>
<path style="fill:#6e7071; stroke:none;" d="M221 16L222 17L221 16z"/>
<path style="fill:#848789; stroke:none;" d="M230 16L231 17L230 16M251 16L252 17L251 16z"/>
<path style="fill:#6e7071; stroke:none;" d="M260 16L261 17L260 16z"/>
<path style="fill:#afb5b9; stroke:none;" d="M219 17L220 18L219 17z"/>
<path style="fill:#6e7071; stroke:none;" d="M250 17L251 18L250 17z"/>
<path style="fill:#afb5b9; stroke:none;" d="M261 17L262 18L261 17M218 18L219 19L218 18M248 18L249 19L248 18z"/>
<path style="fill:#6e7071; stroke:none;" d="M249 18L250 19L249 18z"/>
<path style="fill:#848789; stroke:none;" d="M261 18L261 21L262 21L261 18z"/>
<path style="fill:#afb5b9; stroke:none;" d="M217 19L218 20L217 19M231.333 19.6667L231.667 20.3333L231.333 19.6667z"/>
<path style="fill:#6e7071; stroke:none;" d="M248 19L249 20L248 19M247 20L248 21L247 20M216 21L217 22L216 21z"/>
<path style="fill:#848789; stroke:none;" d="M246 21L247 22L246 21z"/>
<path style="fill:#afb5b9; stroke:none;" d="M261 21L262 22L261 21z"/>
<path style="fill:#848789; stroke:none;" d="M215 22L216 23L215 22M230 22L231 23L230 22z"/>
<path style="fill:#afb5b9; stroke:none;" d="M245 22L246 23L245 22z"/>
<path style="fill:#6e7071; stroke:none;" d="M260 22L261 23L260 22z"/>
<path style="fill:#afb5b9; stroke:none;" d="M214 23L215 24L214 23z"/>
<path style="fill:#6e7071; stroke:none;" d="M229 23L230 24L229 23M245 23L246 24L245 23z"/>
<path style="fill:#afb5b9; stroke:none;" d="M260 23L261 24L260 23z"/>
<path style="fill:#6e7071; stroke:none;" d="M214 24L215 25L214 24M228 24L229 25L228 24z"/>
<path style="fill:#848789; stroke:none;" d="M244 24L245 25L244 24z"/>
<path style="fill:#afb5b9; stroke:none;" d="M259 24L260 25L259 24M213 25L214 26L213 25z"/>
<path style="fill:#848789; stroke:none;" d="M227 25L228 26L227 25z"/>
<path style="fill:#afb5b9; stroke:none;" d="M243 25L244 26L243 25z"/>
<path style="fill:#6e7071; stroke:none;" d="M257 25L258 26L257 25M213 26L214 27L213 26z"/>
<path style="fill:#afb5b9; stroke:none;" d="M226 26L227 27L226 26z"/>
<path style="fill:#848789; stroke:none;" d="M243 26L244 27L243 26M256 26L257 27L256 26z"/>
<path style="fill:#afb5b9; stroke:none;" d="M212 27L213 28L212 27M225 27L226 28L225 27M242 27L243 28L242 27M255 27L256 28L255 27z"/>
<path style="fill:#6e7071; stroke:none;" d="M212 28L213 29L212 28z"/>
<path style="fill:#afb5b9; stroke:none;" d="M224 28L225 29L224 28z"/>
<path style="fill:#848789; stroke:none;" d="M242 28L243 29L242 28M254 28L255 29L254 28z"/>
<path style="fill:#afb5b9; stroke:none;" d="M211 29L212 30L211 29M223 29L224 30L223 29z"/>
<path style="fill:#6e7071; stroke:none;" d="M253 29L254 30L253 29z"/>
<path style="fill:#848789; stroke:none;" d="M211 30L212 31L211 30M222 30L223 31L222 30z"/>
<path style="fill:#afb5b9; stroke:none;" d="M241 30L242 31L241 30z"/>
<path style="fill:#6e7071; stroke:none;" d="M241 31L242 32L241 31z"/>
<path style="fill:#afb5b9; stroke:none;" d="M252 31L253 32L252 31M210 32L211 33L210 32z"/>
<path style="fill:#848789; stroke:none;" d="M221 32L222 33L221 32M210 33L211 34L210 33z"/>
<path style="fill:#afb5b9; stroke:none;" d="M221 33L222 34L221 33M240 33L241 34L240 33z"/>
<path style="fill:#848789; stroke:none;" d="M251 33L252 34L251 33z"/>
<path style="fill:#afb5b9; stroke:none;" d="M69 34L69 35L179 35L146 34L69 34z"/>
<path style="fill:#848789; stroke:none;" d="M240 34L241 35L240 34z"/>
<path style="fill:#afb5b9; stroke:none;" d="M251.333 34.6667L251.667 35.3333L251.333 34.6667M290 34L290 35L680 35L645 34L566 34L290 34z"/>
<path style="fill:#848789; stroke:none;" d="M67 35L66 37L67 35z"/>
<path style="fill:#555555; stroke:none;" d="M73 461L73 42L156 42C159.832 42 181.75 44.2946 180.824 38.0394C180.007 32.5209 160.22 35 156 35L91 35C85.5639 35 71.682 32.5248 67.6034 36.6034C63.6359 40.5709 66 53.7309 66 59L66 121L66 372L66 443C66 448.285 63.3933 463.686 68.3179 466.972C73.2556 470.267 85.2143 468 91 468L149 468L370 468L439 468C442.506 468 460.715 470.172 459.824 464.17C459.01 458.684 441.97 461 438 461L369 461L73 461z"/>
<path style="fill:#848789; stroke:none;" d="M180 35L181 36L180 35z"/>
<path style="fill:#afb5b9; stroke:none;" d="M209.333 35.6667L209.667 36.3333L209.333 35.6667z"/>
<path style="fill:#848789; stroke:none;" d="M220.333 35.6667L220.667 36.3333L220.333 35.6667z"/>
<path style="fill:#6e7071; stroke:none;" d="M240 35L241 36L240 35z"/>
<path style="fill:#afb5b9; stroke:none;" d="M287 35L288 36L287 35z"/>
<path style="fill:#6e7071; stroke:none;" d="M288 35L287 37L288 35z"/>
<path style="fill:#555555; stroke:none;" d="M676 42L676 461L588 461C583.857 461 560.634 458.552 561.466 464.961C562.192 470.552 583.61 468 588 468L657 468C662.532 468 677.162 470.58 681.258 466.397C685.335 462.232 683 449.436 683 444L683 381L683 131L683 60C683 54.5821 685.601 39.4929 680.566 36.0278C675.759 32.7188 663.685 35 658 35L600 35L378 35L309 35C305.578 35 286.964 32.9039 287.921 38.8302C288.795 44.2383 305.109 42 309 42L379 42L676 42z"/>
<path style="fill:#848789; stroke:none;" d="M681 35L682 36L681 35z"/>
<path style="fill:#afb5b9; stroke:none;" d="M181 36L182 37L181 36M682 36L683 37L682 36z"/>
<path style="fill:#6e7071; stroke:none;" d="M181 37L182 38L181 37z"/>
<path style="fill:#848789; stroke:none;" d="M209 37L210 38L209 37z"/>
<path style="fill:#afb5b9; stroke:none;" d="M220 37L221 38L220 37M239.333 37.6667L239.667 38.3333L239.333 37.6667z"/>
<path style="fill:#6e7071; stroke:none;" d="M250 37L251 38L250 37z"/>
<path style="fill:#afb5b9; stroke:none;" d="M286 37L286 40L287 40L286 37z"/>
<path style="fill:#6e7071; stroke:none;" d="M682 37L683 38L682 37M209.333 38.6667L209.667 39.3333L209.333 38.6667M222 38L223 39L222 38z"/>
<path style="fill:#848789; stroke:none;" d="M223 38L224 39L223 38z"/>
<path style="fill:#afb5b9; stroke:none;" d="M224 38L225 39L224 38z"/>
<path style="fill:#6e7071; stroke:none;" d="M253 38L254 39L253 38z"/>
<path style="fill:#848789; stroke:none;" d="M254 38L255 39L254 38z"/>
<path style="fill:#afb5b9; stroke:none;" d="M255 38L256 39L255 38z"/>
<path style="fill:#848789; stroke:none;" d="M181 39L182 40L181 39z"/>
<path style="fill:#6e7071; stroke:none;" d="M225 39L226 40L225 39z"/>
<path style="fill:#afb5b9; stroke:none;" d="M226 39L227 40L226 39z"/>
<path style="fill:#848789; stroke:none;" d="M239 39L239 42L240 42L239 39z"/>
<path style="fill:#afb5b9; stroke:none;" d="M256 39L257 40L256 39M181 40L182 41L181 40M227 40L228 41L227 40z"/>
<path style="fill:#848789; stroke:none;" d="M257 40L258 41L257 40M287 40L288 41L287 40M179 41L180 42L179 41z"/>
<path style="fill:#afb5b9; stroke:none;" d="M228 41L229 42L228 41z"/>
<path style="fill:#848789; stroke:none;" d="M258 41L259 42L258 41z"/>
<path style="fill:#afb5b9; stroke:none;" d="M288 41L289 42L288 41z"/>
<path style="fill:#6e7071; stroke:none;" d="M289 41L290 42L289 41z"/>
<path style="fill:#afb5b9; stroke:none;" d="M229 42L230 43L229 42z"/>
<path style="fill:#6e7071; stroke:none;" d="M239 42L239 45L240 45L239 42z"/>
<path style="fill:#848789; stroke:none;" d="M259 42L260 43L259 42z"/>
<path style="fill:#afb5b9; stroke:none;" d="M675 42L675 461L676 461L676 164L676 79C676 68.3661 679.108 51.7891 675 42z"/>
<path style="fill:#6e7071; stroke:none;" d="M229 43L230 44L229 43z"/>
<path style="fill:#afb5b9; stroke:none;" d="M260 43L261 44L260 43M230 44L231 45L230 44z"/>
<path style="fill:#848789; stroke:none;" d="M260 44L261 45L260 44M230 45L231 46L230 45M239 45L239 48L240 48L239 45z"/>
<path style="fill:#afb5b9; stroke:none;" d="M261 46L262 47L261 46z"/>
<path style="fill:#6e7071; stroke:none;" d="M209.333 47.6667L209.667 48.3333L209.333 47.6667z"/>
<path style="fill:#afb5b9; stroke:none;" d="M231.333 47.6667L231.667 48.3333L231.333 47.6667z"/>
<path style="fill:#848789; stroke:none;" d="M261.333 47.6667L261.667 48.3333L261.333 47.6667z"/>
<path style="fill:#afb5b9; stroke:none;" d="M239.333 48.6667L239.667 49.3333L239.333 48.6667z"/>
<path style="fill:#848789; stroke:none;" d="M209 49L210 50L209 49M231.333 49.6667L231.667 50.3333L231.333 49.6667z"/>
<path style="fill:#6e7071; stroke:none;" d="M261 49L261 52L262 52L261 49z"/>
<path style="fill:#afb5b9; stroke:none;" d="M209.333 50.6667L209.667 51.3333L209.333 50.6667M231.333 51.6667L231.667 52.3333L231.333 51.6667z"/>
<path style="fill:#6e7071; stroke:none;" d="M240 51L241 52L240 51M210 52L211 53L210 52z"/>
<path style="fill:#848789; stroke:none;" d="M240 52L241 53L240 52M261 52L262 53L261 52M210 53L211 54L210 53z"/>
<path style="fill:#afb5b9; stroke:none;" d="M240 53L241 54L240 53M261 53L262 54L261 53M210 54L211 55L210 54z"/>
<path style="fill:#6e7071; stroke:none;" d="M230 54L231 55L230 54M241 54L242 55L241 54z"/>
<path style="fill:#848789; stroke:none;" d="M211 55L212 56L211 55z"/>
<path style="fill:#afb5b9; stroke:none;" d="M230 55L231 56L230 55M241 55L242 56L241 55z"/>
<path style="fill:#848789; stroke:none;" d="M260 55L261 56L260 55z"/>
<path style="fill:#6e7071; stroke:none;" d="M229 56L230 57L229 56M242 56L243 57L242 56z"/>
<path style="fill:#afb5b9; stroke:none;" d="M212 57L213 58L212 57M259 57L260 58L259 57M213 58L214 59L213 58M228 58L229 59L228 58M243 58L244 59L243 58z"/>
<path style="fill:#848789; stroke:none;" d="M258 58L259 59L258 58z"/>
<path style="fill:#afb5b9; stroke:none;" d="M214 59L215 60L214 59M227 59L228 60L227 59M244 59L245 60L244 59z"/>
<path style="fill:#6e7071; stroke:none;" d="M245 59L246 60L245 59z"/>
<path style="fill:#848789; stroke:none;" d="M257 59L258 60L257 59z"/>
<path style="fill:#afb5b9; stroke:none;" d="M215 60L216 61L215 60z"/>
<path style="fill:#848789; stroke:none;" d="M216 60L217 61L216 60M225 60L226 61L225 60z"/>
<path style="fill:#afb5b9; stroke:none;" d="M226 60L227 61L226 60z"/>
<path style="fill:#848789; stroke:none;" d="M246 60L247 61L246 60z"/>
<path style="fill:#6e7071; stroke:none;" d="M255 60L256 61L255 60z"/>
<path style="fill:#afb5b9; stroke:none;" d="M256 60L257 61L256 60M218 61L219 62L218 61z"/>
<path style="fill:#848789; stroke:none;" d="M219 61L220 62L219 61z"/>
<path style="fill:#6e7071; stroke:none;" d="M220 61L221 62L220 61z"/>
<path style="fill:#848789; stroke:none;" d="M221.667 61.3333L222.333 61.6667L221.667 61.3333z"/>
<path style="fill:#afb5b9; stroke:none;" d="M223 61L224 62L223 61z"/>
<path style="fill:#848789; stroke:none;" d="M248.667 61.3333L249.333 61.6667L248.667 61.3333z"/>
<path style="fill:#6e7071; stroke:none;" d="M250 61L250 62L253 62L250 61z"/>
<path style="fill:#848789; stroke:none;" d="M253 61L254 62L253 61z"/>
<path style="fill:#afb5b9; stroke:none;" d="M254 61L255 62L254 61M495.667 438.333L496.333 438.667L495.667 438.333z"/>
<path style="fill:#848789; stroke:none;" d="M497 438L498 439L497 438z"/>
<path style="fill:#afb5b9; stroke:none;" d="M498.667 438.333L499.333 438.667L498.667 438.333M527.667 438.333L528.333 438.667L527.667 438.333M492 439L491 441L492 439z"/>
<path style="fill:#6e7071; stroke:none;" d="M493 439L494 440L493 439z"/>
<path style="fill:#555555; stroke:none;" d="M498 462C496.842 469.69 489.913 472.407 488.002 479.035C485.547 487.553 496.75 484.125 499.895 480.941C507.689 473.051 517.097 440.094 498 439.153C483.592 438.443 484.446 460.489 498 462z"/>
<path style="fill:#848789; stroke:none;" d="M501 439L502 440L501 439z"/>
<path style="fill:#afb5b9; stroke:none;" d="M523 439L524 440L523 439z"/>
<path style="fill:#848789; stroke:none;" d="M524 439L525 440L524 439z"/>
<path style="fill:#555555; stroke:none;" d="M529 462C527.003 468.821 522.474 471.594 519.176 477.325C514.329 485.747 525.413 485.449 529.815 481.517C538.331 473.911 546.929 441.508 529 439.272C514.387 437.449 514.759 460.531 529 462z"/>
<path style="fill:#848789; stroke:none;" d="M531 439L532 440L531 439z"/>
<path style="fill:#afb5b9; stroke:none;" d="M503 440L504 441L503 440M521 440L522 441L521 440z"/>
<path style="fill:#6e7071; stroke:none;" d="M522 440L523 441L522 440z"/>
<path style="fill:#afb5b9; stroke:none;" d="M533 440L534 441L533 440z"/>
<path style="fill:#848789; stroke:none;" d="M490 441L491 442L490 441M504 441L505 442L504 441z"/>
<path style="fill:#afb5b9; stroke:none;" d="M520 441L521 442L520 441z"/>
<path style="fill:#6e7071; stroke:none;" d="M534 441L535 442L534 441z"/>
<path style="fill:#848789; stroke:none;" d="M489 442L490 443L489 442z"/>
<path style="fill:#afb5b9; stroke:none;" d="M505 442L506 443L505 442M519 442L520 443L519 442z"/>
<path style="fill:#848789; stroke:none;" d="M535 442L536 443L535 442z"/>
<path style="fill:#afb5b9; stroke:none;" d="M488 443L489 444L488 443M506 443L507 444L506 443z"/>
<path style="fill:#6e7071; stroke:none;" d="M519 443L520 444L519 443z"/>
<path style="fill:#848789; stroke:none;" d="M536 443L537 444L536 443z"/>
<path style="fill:#6e7071; stroke:none;" d="M488 444L489 445L488 444M506 444L507 445L506 444z"/>
<path style="fill:#848789; stroke:none;" d="M518 444L519 445L518 444z"/>
<path style="fill:#afb5b9; stroke:none;" d="M487 445L488 446L487 445M507 445L508 446L507 445z"/>
<path style="fill:#848789; stroke:none;" d="M537 445L538 446L537 445M487 446L488 447L487 446z"/>
<path style="fill:#6e7071; stroke:none;" d="M507 446L508 447L507 446z"/>
<path style="fill:#afb5b9; stroke:none;" d="M517 446L518 447L517 446z"/>
<path style="fill:#848789; stroke:none;" d="M517 447L518 448L517 447z"/>
<path style="fill:#afb5b9; stroke:none;" d="M538 447L539 448L538 447M508 448L509 449L508 448z"/>
<path style="fill:#6e7071; stroke:none;" d="M517 448L517 453L518 453L517 448z"/>
<path style="fill:#848789; stroke:none;" d="M538 448L539 449L538 448z"/>
<path style="fill:#afb5b9; stroke:none;" d="M486.333 449.667L486.667 450.333L486.333 449.667z"/>
<path style="fill:#848789; stroke:none;" d="M508 449L509 450L508 449z"/>
<path style="fill:#6e7071; stroke:none;" d="M508 450L509 451L508 450z"/>
<path style="fill:#afb5b9; stroke:none;" d="M539 451L540 452L539 451M509 452L509 461L510 461L509 452z"/>
<path style="fill:#848789; stroke:none;" d="M539 452L539 461L540 461L539 452z"/>
<path style="fill:#6e7071; stroke:none;" d="M487 453L488 454L487 453z"/>
<path style="fill:#848789; stroke:none;" d="M517 453L518 454L517 453M487 454L488 455L487 454z"/>
<path style="fill:#afb5b9; stroke:none;" d="M517 454L518 455L517 454M487 455L488 456L487 455z"/>
<path style="fill:#6e7071; stroke:none;" d="M518 455L519 456L518 455M488 456L489 457L488 456z"/>
<path style="fill:#afb5b9; stroke:none;" d="M518 456L519 457L518 456M488 457L489 458L488 457z"/>
<path style="fill:#6e7071; stroke:none;" d="M519 457L520 458L519 457z"/>
<path style="fill:#afb5b9; stroke:none;" d="M489 458L490 459L489 458M519 458L520 459L519 458z"/>
<path style="fill:#848789; stroke:none;" d="M490 459L491 460L490 459z"/>
<path style="fill:#afb5b9; stroke:none;" d="M520 459L521 460L520 459M491 460L492 461L491 460M521 460L522 461L521 460z"/>
<path style="fill:#6e7071; stroke:none;" d="M522 460L523 461L522 460M458 461L459 462L458 461z"/>
<path style="fill:#afb5b9; stroke:none;" d="M459 461L460 462L459 461z"/>
<path style="fill:#848789; stroke:none;" d="M493 461L494 462L493 461M523 461L524 462L523 461z"/>
<path style="fill:#6e7071; stroke:none;" d="M524 461L525 462L524 461z"/>
<path style="fill:#afb5b9; stroke:none;" d="M539.333 461.667L539.667 462.333L539.333 461.667M561 461L562 462L561 461z"/>
<path style="fill:#6e7071; stroke:none;" d="M562 461L563 462L562 461z"/>
<path style="fill:#afb5b9; stroke:none;" d="M460 462L461 463L460 462M495 462L496 463L495 462z"/>
<path style="fill:#848789; stroke:none;" d="M496.667 462.333L497.333 462.667L496.667 462.333z"/>
<path style="fill:#afb5b9; stroke:none;" d="M525.667 462.333L526.333 462.667L525.667 462.333z"/>
<path style="fill:#848789; stroke:none;" d="M527 462L528 463L527 462z"/>
<path style="fill:#6e7071; stroke:none;" d="M528.333 462.667L528.667 463.333L528.333 462.667M460 463L461 464L460 463z"/>
<path style="fill:#afb5b9; stroke:none;" d="M497 463L498 464L497 463z"/>
<path style="fill:#6e7071; stroke:none;" d="M508 463L509 464L508 463z"/>
<path style="fill:#848789; stroke:none;" d="M560 463L560 466L561 466L560 463M497.333 464.667L497.667 465.333L497.333 464.667M508 464L509 465L508 464z"/>
<path style="fill:#6e7071; stroke:none;" d="M538 464L539 465L538 464M460 465L461 466L460 465z"/>
<path style="fill:#afb5b9; stroke:none;" d="M508 465L509 466L508 465M527.333 465.667L527.667 466.333L527.333 465.667z"/>
<path style="fill:#848789; stroke:none;" d="M538 465L539 466L538 465z"/>
<path style="fill:#6e7071; stroke:none;" d="M682 465L683 466L682 465z"/>
<path style="fill:#848789; stroke:none;" d="M66 466L67 467L66 466M460 466L461 467L460 466z"/>
<path style="fill:#afb5b9; stroke:none;" d="M538 466L539 467L538 466M560 466L561 467L560 466M682 466L683 467L682 466z"/>
<path style="fill:#848789; stroke:none;" d="M67 467L68 468L67 467M459 467L460 468L459 467z"/>
<path style="fill:#afb5b9; stroke:none;" d="M496 467L497 468L496 467z"/>
<path style="fill:#6e7071; stroke:none;" d="M507 467L508 468L507 467M527 467L528 468L527 467z"/>
<path style="fill:#afb5b9; stroke:none;" d="M561 467L562 468L561 467z"/>
<path style="fill:#848789; stroke:none;" d="M681 467L682 468L681 467z"/>
<path style="fill:#afb5b9; stroke:none;" d="M69 468L69 469L458 469L423 468L344 468L69 468z"/>
<path style="fill:#848789; stroke:none;" d="M496 468L497 469L496 468M507 468L508 469L507 468z"/>
<path style="fill:#6e7071; stroke:none;" d="M537 468L538 469L537 468z"/>
<path style="fill:#afb5b9; stroke:none;" d="M563 468L563 469L680 469L644 468L563 468M495 469L496 470L495 469z"/>
<path style="fill:#848789; stroke:none;" d="M526 469L527 470L526 469z"/>
<path style="fill:#afb5b9; stroke:none;" d="M537 469L538 470L537 469z"/>
<path style="fill:#6e7071; stroke:none;" d="M495 470L496 471L495 470M506 470L507 471L506 470z"/>
<path style="fill:#afb5b9; stroke:none;" d="M525 470L526 471L525 470z"/>
<path style="fill:#848789; stroke:none;" d="M494 471L495 472L494 471z"/>
<path style="fill:#afb5b9; stroke:none;" d="M506 471L507 472L506 471M524 471L525 472L524 471z"/>
<path style="fill:#848789; stroke:none;" d="M536 471L537 472L536 471z"/>
<path style="fill:#afb5b9; stroke:none;" d="M493 472L494 473L493 472z"/>
<path style="fill:#6e7071; stroke:none;" d="M505 472L506 473L505 472z"/>
<path style="fill:#afb5b9; stroke:none;" d="M536 472L537 473L536 472z"/>
<path style="fill:#848789; stroke:none;" d="M492 473L493 474L492 473z"/>
<path style="fill:#afb5b9; stroke:none;" d="M505 473L506 474L505 473M522 473L523 474L522 473z"/>
<path style="fill:#6e7071; stroke:none;" d="M523 473L524 474L523 473z"/>
<path style="fill:#848789; stroke:none;" d="M535 473L536 474L535 473M491 474L492 475L491 474z"/>
<path style="fill:#6e7071; stroke:none;" d="M504 474L505 475L504 474z"/>
<path style="fill:#afb5b9; stroke:none;" d="M521 474L522 475L521 474M535 474L536 475L535 474M489 475L490 476L489 475M504 475L505 476L504 475z"/>
<path style="fill:#6e7071; stroke:none;" d="M520 475L521 476L520 475z"/>
<path style="fill:#848789; stroke:none;" d="M534 475L535 476L534 475z"/>
<path style="fill:#afb5b9; stroke:none;" d="M488 476L489 477L488 476z"/>
<path style="fill:#6e7071; stroke:none;" d="M503 476L504 477L503 476z"/>
<path style="fill:#afb5b9; stroke:none;" d="M518 476L519 477L518 476M487 477L488 478L487 477M503 477L504 478L503 477z"/>
<path style="fill:#6e7071; stroke:none;" d="M518 477L519 478L518 477z"/>
<path style="fill:#848789; stroke:none;" d="M533 477L534 478L533 477M487 478L488 479L487 478M502 478L503 479L502 478z"/>
<path style="fill:#afb5b9; stroke:none;" d="M517 478L518 479L517 478z"/>
<path style="fill:#6e7071; stroke:none;" d="M532 478L533 479L532 478M487 479L488 480L487 479M501 479L502 480L501 479z"/>
<path style="fill:#848789; stroke:none;" d="M517 479L517 483L518 483L517 479z"/>
<path style="fill:#6e7071; stroke:none;" d="M500 480L501 481L500 480z"/>
<path style="fill:#afb5b9; stroke:none;" d="M531 480L532 481L531 480z"/>
<path style="fill:#6e7071; stroke:none;" d="M499 481L500 482L499 481z"/>
<path style="fill:#afb5b9; stroke:none;" d="M530 481L531 482L530 481z"/>
<path style="fill:#6e7071; stroke:none;" d="M487 482L488 483L487 482M498 482L499 483L498 482M528 482L529 483L528 482z"/>
<path style="fill:#afb5b9; stroke:none;" d="M529 482L530 483L529 482z"/>
<path style="fill:#848789; stroke:none;" d="M487 483L488 484L487 483M497 483L498 484L497 483z"/>
<path style="fill:#6e7071; stroke:none;" d="M527 483L528 484L527 483M488 484L489 485L488 484z"/>
<path style="fill:#afb5b9; stroke:none;" d="M496 484L497 485L496 484z"/>
<path style="fill:#848789; stroke:none;" d="M518 484L519 485L518 484z"/>
<path style="fill:#afb5b9; stroke:none;" d="M526 484L527 485L526 484z"/>
<path style="fill:#848789; stroke:none;" d="M489 485L490 486L489 485z"/>
<path style="fill:#6e7071; stroke:none;" d="M490 485L490 486L493 486L490 485z"/>
<path style="fill:#848789; stroke:none;" d="M493 485L494 486L493 485z"/>
<path style="fill:#afb5b9; stroke:none;" d="M494 485L495 486L494 485M519 485L520 486L519 485z"/>
<path style="fill:#848789; stroke:none;" d="M520 485L521 486L520 485z"/>
<path style="fill:#6e7071; stroke:none;" d="M521.667 485.333L522.333 485.667L521.667 485.333z"/>
<path style="fill:#848789; stroke:none;" d="M523 485L524 486L523 485z"/>
<path style="fill:#afb5b9; stroke:none;" d="M524 485L525 486L524 485z"/>
</svg>
